<?xml version="1.0" encoding="UTF-8"?>
<svg width="198px" height="60px" viewBox="0 0 132 40" version="1.1" xmlns="http://www.w3.org/2000/svg" xmlns:xlink="http://www.w3.org/1999/xlink">
    <!-- Generator: Sketch 62 (91390) - https://sketch.com -->
    <title>logitech-black</title>
    <desc>Created with Sketch.</desc>
    <g id="-----Icon-Library-(WIP)" stroke="none" stroke-width="1" fill="none" fill-rule="evenodd">
        <g id="Icons/logos/logitech/black" fill="#000000">
            <g id="logitech-black">
                <path d="M130.849894,7.56313972 L130.849894,7.21950303 L131.062704,7.21950303 C131.233263,7.21950303 131.297261,7.2840328 131.297261,7.391478 C131.297261,7.49860995 131.233263,7.56313972 131.063015,7.56313972 L130.849894,7.56313972 Z M131.424947,7.391478 C131.424947,7.1765876 131.275825,7.09075674 131.062704,7.09075674 L130.722208,7.09075674 L130.722208,8.07875138 L130.849894,8.07875138 L130.849894,7.69188601 L131.062704,7.69188601 L131.297261,8.07875138 L131.446073,8.07875138 L131.190701,7.67058492 C131.339823,7.64897058 131.424947,7.56313972 131.424947,7.391478 L131.424947,7.391478 Z M131.062704,8.42238807 C130.594522,8.42238807 130.232279,8.05713704 130.232279,7.58475406 C130.232279,7.13367217 130.594522,6.76873439 131.062704,6.76873439 C131.510071,6.76873439 131.872314,7.13367217 131.872314,7.58475406 C131.872314,8.05713704 131.510071,8.42238807 131.062704,8.42238807 L131.062704,8.42238807 Z M131.062704,6.63967485 C130.530523,6.63967485 130.104593,7.06945565 130.104593,7.58475406 C130.104593,8.12166681 130.530523,8.55113436 131.062704,8.55113436 C131.574069,8.55113436 132,8.12166681 132,7.58475406 C132,7.06945565 131.574069,6.63967485 131.062704,6.63967485 L131.062704,6.63967485 Z M54.50422,0 C52.7299746,0 51.3335059,1.40837791 51.3335059,3.23525957 C51.3335059,5.02392457 52.7299746,6.43198922 54.50422,6.43198922 C56.3539585,6.43198922 57.7504272,5.02392457 57.7504272,3.23525957 C57.7504272,1.40837791 56.3539585,0 54.50422,0 L54.50422,0 Z M66.4694247,2.77853915 L61.6381712,2.77853915 L61.6381712,8.79171137 L59.0335008,8.79171137 L59.0335008,13.1302421 L61.6381712,13.1302421 L61.6381712,28.315726 L66.4694247,28.315726 L66.4694247,13.1302421 L69.1116864,13.1302421 L69.1116864,8.79171137 L66.4694247,8.79171137 L66.4694247,2.77853915 Z M101.912391,12.9018819 C103.950396,12.9018819 105.611246,13.9675628 106.89432,15.4523741 L110.253612,12.103091 C108.366592,9.7051522 105.384767,8.18306407 101.987884,8.18306407 C96.1370062,8.18306407 91.5322322,12.6738349 91.5322322,18.534767 C91.5322322,24.3956991 96.1370062,28.8870964 101.987884,28.8870964 C105.384767,28.8870964 108.366592,27.3643818 110.253612,24.9670695 L106.89432,21.6177864 C105.649148,23.0637545 103.950396,24.1676521 101.874489,24.1676521 C98.7789572,24.1676521 96.4013877,21.7318099 96.4013877,18.534767 C96.4013877,15.3380373 98.7789572,12.9018819 101.912391,12.9018819 L101.912391,12.9018819 Z M122.747269,8.18306407 C120.369699,8.18306407 118.331072,9.09619165 116.897012,10.6564964 L116.897012,0.533153736 L112.065448,0.533153736 L112.065448,28.315726 L116.897012,28.315726 L116.897012,17.6974462 C116.897012,14.8810037 118.670947,12.9400985 121.615181,12.9400985 C124.370838,12.9400985 125.880081,14.6526434 125.880081,17.6974462 L125.880081,28.315726 L130.711645,28.315726 L130.711645,16.822222 C130.711645,11.4180104 127.352664,8.18306407 122.747269,8.18306407 L122.747269,8.18306407 Z M79.9820846,8.18306407 C74.1694196,8.18306407 69.7532232,12.6738349 69.7532232,18.6487905 C69.7532232,24.5482524 73.7919536,28.8870964 80.0572671,28.8870964 C83.5299539,28.8870964 86.6251748,27.592742 88.8899705,25.1568998 L85.6440739,21.9222667 C84.0584063,23.4443548 82.3602755,24.5482524 80.1706622,24.5482524 C77.5287112,24.5482524 75.5279863,23.0258511 74.8488583,20.4756721 L89.9089732,20.4756721 L89.9089732,19.2959677 C89.9089732,12.6356182 85.8326516,8.18306407 79.9820846,8.18306407 L79.9820846,8.18306407 Z M74.7357738,16.5177418 C75.3769999,13.9296594 77.3398229,12.4833781 79.8690002,12.4833781 C82.3978667,12.4833781 84.2848858,13.8914428 84.8888314,16.5177418 L74.7357738,16.5177418 Z M39.7457671,35.2426523 C36.6505463,35.2426523 34.1971729,32.8071233 34.1971729,29.6482971 L29.2904261,29.6482971 C29.2904261,35.5089159 33.8952001,40 39.7457671,40 C45.5960234,40 50.2014187,35.5089159 50.2014187,29.6482971 L45.2943613,29.6482971 C45.2943613,32.8071233 42.8409879,35.2426523 39.7457671,35.2426523 L39.7457671,35.2426523 Z M52.1263398,28.315726 L56.957904,28.315726 L56.957904,8.79171137 L52.1263398,8.79171137 L52.1263398,28.315726 Z M0,28.315726 L4.83156423,28.315726 L4.83156423,0.533153736 L0,0.533153736 L0,28.315726 Z M17.1739243,8.18306407 C11.323668,8.18306407 6.71889401,12.6738349 6.71889401,18.534767 C6.71889401,24.3956991 11.323668,28.8870964 17.1739243,28.8870964 C23.0248019,28.8870964 27.6292653,24.3956991 27.6292653,18.534767 C27.6292653,12.6738349 23.0248019,8.18306407 17.1739243,8.18306407 L17.1739243,8.18306407 Z M17.1739243,24.1676521 C14.0790141,24.1676521 11.6253301,21.6939065 11.6253301,18.4965503 C11.6253301,15.3380373 14.0790141,12.9018819 17.1739243,12.9018819 C20.3070471,12.9018819 22.7604204,15.3380373 22.7604204,18.534767 C22.7604204,21.7318099 20.3070471,24.1676521 17.1739243,24.1676521 L17.1739243,24.1676521 Z M50.0125304,12.6738349 L50.0125304,8.79171137 L43.2181432,8.79171137 C42.1236473,8.41142428 40.9533475,8.18306407 39.7457671,8.18306407 C33.8952001,8.18306407 29.2904261,12.6738349 29.2904261,18.534767 C29.2904261,24.3956991 33.8952001,28.8870964 39.7457671,28.8870964 C45.5960234,28.8870964 50.2014187,24.3956991 50.2014187,18.534767 C50.2014187,16.5556452 49.6726557,14.61474 48.6160617,13.1684587 L50.0125304,12.6738349 Z M39.7457671,24.1676521 C36.6505463,24.1676521 34.1971729,21.6939065 34.1971729,18.4965503 C34.1971729,15.3380373 36.6505463,12.9018819 39.7457671,12.9018819 C42.8785792,12.9018819 45.3322632,15.3380373 45.3322632,18.534767 C45.3322632,21.7318099 42.8785792,24.1676521 39.7457671,24.1676521 L39.7457671,24.1676521 Z" id="Fill-1"></path>
            </g>
        </g>
    </g>
</svg>